<?xml version="1.0" encoding="utf-8"?>
<svg id="master-artboard" viewBox="0 0 1400 980" version="1.1" xmlns="http://www.w3.org/2000/svg" x="0px" y="0px" style="enable-background:new 0 0 1400 980;" width="1400px" height="980px">

<g transform="matrix(0.325697185437392, 0, 0, 0.325697185437392, 112.52753517577435, 30.80882285245957)">
				<path class="st10" d="M1108.3,528v296.7c0,0-137.1-24.3-137.1-109.7V579.6c0-21.7,16.5-39.8,38-41.9L1108.3,528z" style="fill: rgb(136, 62, 62);"/>
			</g><path class="st9" d="M1108.3,528v296.7c0,0,137.1-24.3,137.1-109.7V579.6c0-21.7-16.5-39.8-38-41.9L1108.3,528z" style="fill: rgb(109, 47, 47);" transform="matrix(0.325697185437392, 0, 0, 0.325697185437392, 112.52753517577435, 30.80882285245957)"/><path class="st2" d="M1222.6,712.3C1222.6,712.3,1222.6,712.3,1222.6,712.3C1222.6,712.3,1222.6,712.3,1222.6,712.3&#10;&#9;&#9;&#9;&#9;c0-0.9-0.3-1.7-2.2-2.6l-43.1-98.8c0.5-0.5,0.8-1.1,0.8-1.9v-4c2.8-0.7,5-2.8,5.6-5.6c0.7-3.2-0.9-6.2-4.1-7.5&#10;&#9;&#9;&#9;&#9;c-3.2-1.4-7.6-2.1-13-2.1c-11.6,0-16.5,2.4-21.6,4.9c-2.7,1.3-5.5,2.7-9.6,3.8c-1,0.3-2.5,0.4-4.5,0.4c-5,0-11.9-0.9-16.6-1.7&#10;&#9;&#9;&#9;&#9;v-1.4c0-0.1,0-0.2,0-0.3c-0.1-0.3-0.2-0.6-0.4-0.9l7.3-4.2c0.5-0.3,0.8-0.8,0.8-1.3v-13.3c0-0.5-0.3-1-0.8-1.3l-11.6-6.7&#10;&#9;&#9;&#9;&#9;c0,0,0,0,0,0c0,0,0,0,0,0c0,0,0,0-0.1,0c0,0-0.1,0-0.1,0c0,0-0.1,0-0.1,0c0,0,0,0,0,0c0,0,0,0,0,0c0,0-0.1,0-0.1,0&#10;&#9;&#9;&#9;&#9;c0,0-0.1,0-0.1,0c0,0-0.1,0-0.1,0c0,0,0,0-0.1,0c0,0,0,0,0,0c0,0,0,0,0,0c0,0-0.1,0-0.1,0c0,0-0.1,0-0.1,0c0,0-0.1,0-0.1,0l0,0&#10;&#9;&#9;&#9;&#9;c0,0,0,0,0,0c0,0,0,0,0,0c0,0-0.1,0-0.1,0c0,0-0.1,0-0.1,0c0,0,0,0-0.1,0c0,0,0,0,0,0c0,0,0,0,0,0l-11.6,6.7&#10;&#9;&#9;&#9;&#9;c-0.5,0.3-0.8,0.8-0.8,1.3v13.3c0,0.5,0.3,1,0.8,1.3l6.9,4c-0.3,0.3-0.5,0.6-0.6,1.1c0,0.1,0,0.2,0,0.3v1.3&#10;&#9;&#9;&#9;&#9;c-4.7,0.8-12.2,1.9-17.5,1.9c-1.9,0-3.4-0.1-4.5-0.4c-4-1.1-6.9-2.5-9.6-3.8c-5.1-2.5-10-4.9-21.6-4.9c-5.4,0-9.8,0.7-13,2.1&#10;&#9;&#9;&#9;&#9;c-3.2,1.4-4.8,4.3-4.1,7.5c0.6,2.8,2.8,4.9,5.6,5.6v4c0,0.7,0.3,1.4,0.8,1.9l-43.1,98.8c-1.9,0.8-2.2,1.7-2.2,2.5c0,0,0,0,0,0&#10;&#9;&#9;&#9;&#9;c0,0,0,0,0,0c0,0.4,0.1,0.8,0.3,1.2c1.4,3.4,8.9,14.9,46.8,14.9c38,0,45.5-11.5,46.8-14.9c0.3-0.4,0.3-0.8,0.3-1.2c0,0,0,0,0,0&#10;&#9;&#9;&#9;&#9;c0,0,0,0,0,0c0-0.8-0.3-1.7-2.2-2.5l-43.1-98.8c0.5-0.5,0.8-1.1,0.8-1.9v-4.4c1.2-0.5,2.3-1.3,3.1-2.4c0.4-0.6,1.6-0.9,3.4-0.8&#10;&#9;&#9;&#9;&#9;c4.6,0.2,12.9,2.7,20.2,4.9c2.6,0.8,5,1.5,7.2,2.1c3.4,1,7.3,1.4,11.5,1.4c4.7,0,9.6-0.7,13.7-1.8v1.9&#10;&#9;&#9;&#9;&#9;c-1.5,0.5-2.9,136.8-2.9,136.8c-12.4,0.5-33.5,2.2-33.5,8.3v9.7c0,8.4,40.4,8.5,42.2,8.5s42.2-0.1,42.2-8.5v-9.7&#10;&#9;&#9;&#9;&#9;c0-6.1-21.1-7.8-33.5-8.3l-2.9-138.4c4,1,8.4,1.5,12.8,1.5c4.2,0,8.1-0.5,11.5-1.4c2.2-0.6,4.6-1.3,7.2-2.1&#10;&#9;&#9;&#9;&#9;c7.3-2.2,15.6-4.7,20.2-4.9c1.8-0.1,3,0.2,3.4,0.8c0.8,1.1,1.9,1.9,3.1,2.4v4.4c0,0.7,0.3,1.4,0.8,1.9l-43.1,98.8&#10;&#9;&#9;&#9;&#9;c-1.9,0.8-2.2,1.7-2.2,2.5c0,0,0,0,0,0c0,0,0,0,0,0c0,0.4,0.1,0.8,0.3,1.2c1.4,3.4,8.9,14.9,46.8,14.9c38,0,45.5-11.5,46.8-14.9&#10;&#9;&#9;&#9;&#9;C1222.6,713.1,1222.6,712.7,1222.6,712.3z M1207.9,707.3c-8.3-0.9-19.3-1.4-31-1.5v-88.4l39.7,91.2&#10;&#9;&#9;&#9;&#9;C1214.6,708.2,1211.7,707.7,1207.9,707.3z M1039.6,617.4v88.4c-11.7,0-22.6,0.6-31,1.5c-3.8,0.4-6.7,0.9-8.8,1.3L1039.6,617.4z&#10;&#9;&#9;&#9;&#9; M1073.5,707.3c-8.3-0.9-19.3-1.4-31-1.5v-88.4l39.7,91.2C1080.2,708.2,1077.4,707.7,1073.5,707.3z M1174,617.4v88.4&#10;&#9;&#9;&#9;&#9;c-11.7,0-22.6,0.6-31,1.5c-3.8,0.4-6.7,0.9-8.8,1.3L1174,617.4z" style="fill: rgb(255, 255, 255);" transform="matrix(0.325697185437392, 0, 0, 0.325697185437392, 112.52753517577435, 30.80882285245957)"/><g transform="matrix(1, 0, 0, 1, -8.526512829121202e-14, 0)">
				<path class="st2" d="M635.2,592.1C635.2,592.1,635.2,592.1,635.2,592.1C635.2,592.1,635.2,592.1,635.2,592.1L635.2,592.1&#10;&#9;&#9;&#9;&#9;&#9;L635.2,592.1z" style="fill: rgb(255, 255, 255);"/>
			</g>
</svg>